<?xml version="1.0" encoding="utf-8"?>
<!-- Generator: Adobe Illustrator 24.1.0, SVG Export Plug-In . SVG Version: 6.00 Build 0)  -->
<svg version="1.1" id="Capa_1" xmlns="http://www.w3.org/2000/svg" xmlns:xlink="http://www.w3.org/1999/xlink" x="0px" y="0px"
	 viewBox="0 0 387.3 300" style="enable-background:new 0 0 387.3 300;" xml:space="preserve">
<style type="text/css">
	.st0{fill-rule:evenodd;clip-rule:evenodd;fill:#222222;}
</style>
<g>
	<desc>Created with Sketch.</desc>
	<g>
		<g>
			<path class="st0" d="M369.7,4c-0.7,0-1.4,0.1-2,0.2H19.6C19,4.1,18.3,4,17.6,4C10.5,4,4.8,9.8,4.8,16.9v266.2
				c0,7.1,5.8,12.9,12.9,12.9h352.1c7.1,0,12.9-5.8,12.9-12.9V16.9C382.6,9.8,376.8,4,369.7,4z M18.5,18h350.3v31H18.5V18z
				 M18.5,62.7h350.3v219.5H18.5V62.7z"/>
			<path class="st0" d="M266.7,152.2l22.8,22.8c1.2,1.2,2.8,1.9,4.5,1.9s3.3-0.7,4.5-1.9s1.9-2.8,1.9-4.5s-0.7-3.3-1.9-4.5
				l-22.8-22.8l22.8-22.8c1.2-1.2,1.9-2.8,1.9-4.5s-0.7-3.3-1.9-4.5c-1.2-1.2-2.8-1.9-4.5-1.9s-3.3,0.7-4.5,1.9l-22.8,22.8
				l-22.8-22.8c-1.2-1.2-2.8-1.9-4.5-1.9s-3.3,0.7-4.5,1.9c-1.2,1.2-1.9,2.8-1.9,4.5s0.7,3.3,1.9,4.5l22.8,22.8L234.9,166
				c-1.2,1.2-1.9,2.8-1.9,4.5s0.7,3.3,1.9,4.5s2.8,1.9,4.5,1.9s3.3-0.7,4.5-1.9L266.7,152.2z"/>
			<path class="st0" d="M89.3,175l22.8-22.8l22.8,22.8c1.2,1.2,2.8,1.9,4.5,1.9s3.3-0.7,4.5-1.9s1.9-2.8,1.9-4.5s-0.7-3.3-1.9-4.5
				l-22.8-22.8l22.8-22.8c1.2-1.2,1.9-2.8,1.9-4.5s-0.7-3.3-1.9-4.5s-2.8-1.9-4.5-1.9s-3.3,0.7-4.5,1.9l-22.8,22.8l-22.8-22.8
				c-1.2-1.2-2.8-1.9-4.5-1.9s-3.3,0.7-4.5,1.9s-1.9,2.8-1.9,4.5s0.7,3.3,1.9,4.5l22.8,22.8L80.3,166c-1.2,1.2-1.9,2.8-1.9,4.5
				s0.7,3.3,1.9,4.5c1.2,1.2,2.8,1.9,4.5,1.9S88.1,176.2,89.3,175z"/>
		</g>
	</g>
</g>
<path class="st0" d="M291,240.4H96.4c-3.2,0-5.8-2.6-5.8-5.8l0,0c0-3.2,2.6-5.8,5.8-5.8H291c3.2,0,5.8,2.6,5.8,5.8l0,0
	C296.7,237.8,294.1,240.4,291,240.4z"/>
</svg>
