<?xml version="1.0" encoding="utf-8"?>
<!-- Generator: Adobe Illustrator 24.1.0, SVG Export Plug-In . SVG Version: 6.00 Build 0)  -->
<svg version="1.1" id="Bold" xmlns="http://www.w3.org/2000/svg" xmlns:xlink="http://www.w3.org/1999/xlink" x="0px" y="0px"
	 viewBox="0 0 100 100" style="enable-background:new 0 0 100 100;" xml:space="preserve">
<style type="text/css">
	.st0{fill:#222222;}
</style>
<g>
	<path class="st0" d="M51.4,61.6c0-7.3-3.5-12.7-10.6-14.7c5.2-2.5,8-6.3,8-12.1c0-11.6-8.7-14.4-18.6-14.4H2.6v58.1h28.3
		C41.4,78.5,51.4,73.4,51.4,61.6L51.4,61.6z M15.4,30.3h12c4.6,0,8.8,1.3,8.8,6.6c0,4.9-3.2,6.9-7.8,6.9h-13V30.3z M15.4,68.6v-16
		h14c5.6,0,9.2,2.3,9.2,8.3c0,5.9-4.3,7.7-9.5,7.7H15.4z"/>
	<path class="st0" d="M76.8,79.6c10.1,0,16.6-4.5,19.8-14.2H86.3c-1.1,3.6-5.6,5.5-9.2,5.5c-6.8,0-10.4-4-10.4-10.7h30.4
		c1-13.5-6.6-25-20.4-25c-12.9,0-21.6,9.6-21.6,22.3C55.2,70.6,63.5,79.6,76.8,79.6z M76.4,44c5.8,0,8.8,3.4,9.2,9H66.8
		C67.2,47.4,70.9,44,76.4,44L76.4,44z"/>
	<path class="st0" d="M64.4,23.4h23.6v5.7H64.4V23.4z"/>
</g>
</svg>
