<?xml version="1.0" encoding="utf-8"?>
<!-- Generator: Adobe Illustrator 24.1.0, SVG Export Plug-In . SVG Version: 6.00 Build 0)  -->
<svg version="1.1" id="Capa_1" xmlns="http://www.w3.org/2000/svg" xmlns:xlink="http://www.w3.org/1999/xlink" x="0px" y="0px"
	 viewBox="0 0 100 100" style="enable-background:new 0 0 100 100;" xml:space="preserve">
<style type="text/css">
	.st0{fill:#222222;}
</style>
<path class="st0" d="M50,2.1C23.6,2.1,2.1,23.6,2.1,50S23.6,97.9,50,97.9c26.4,0,47.9-21.4,47.9-47.9S76.4,2.1,50,2.1z M72.5,62
	c0,0.8-0.7,1.5-1.5,1.5H58.7c-0.5,0-1,0.3-1.3,0.7l-6.2,7.2c-0.6,1-2,1-2.6,0l-6.2-7.2c-0.3-0.5-0.8-0.7-1.3-0.7H29
	c-0.8,0-1.5-0.7-1.5-1.5V34.7c0-0.8,0.7-1.5,1.5-1.5h21h21c0.8,0,1.5,0.7,1.5,1.5V62z"/>
</svg>
