<?xml version="1.0" encoding="utf-8"?>
<!-- Generator: Adobe Illustrator 24.1.0, SVG Export Plug-In . SVG Version: 6.00 Build 0)  -->
<svg version="1.1" id="Layer_1" xmlns="http://www.w3.org/2000/svg" xmlns:xlink="http://www.w3.org/1999/xlink" x="0px" y="0px"
	 viewBox="0 0 100 100" style="enable-background:new 0 0 100 100;" xml:space="preserve">
<g id="XMLID_22_">
	<g id="XMLID_64_">
		<defs>
			<path id="XMLID_65_" d="M50,98.2C23.4,98.2,1.8,76.6,1.8,50C1.8,23.4,23.4,1.8,50,1.8c26.6,0,48.2,21.6,48.2,48.2
				C98.2,76.6,76.6,98.2,50,98.2L50,98.2z M90.7,56.6c-1.4-0.4-12.8-3.8-25.7-1.8c5.4,14.8,7.6,26.8,8,29.3
				C82.3,77.9,88.9,68,90.7,56.6L90.7,56.6z M66.1,87.9c-0.6-3.6-3-16.2-8.8-31.2c-0.1,0-0.2,0.1-0.3,0.1
				C33.8,64.9,25.4,81,24.7,82.5c7,5.4,15.8,8.7,25.3,8.7C55.7,91.2,61.1,90.1,66.1,87.9L66.1,87.9z M19.4,77.6
				c0.9-1.6,12.2-20.3,33.5-27.2c0.5-0.2,1.1-0.3,1.6-0.5c-1-2.3-2.2-4.7-3.3-7c-20.6,6.2-40.5,5.9-42.4,5.9c0,0.4,0,0.8,0,1.3
				C8.8,60.6,12.8,70.3,19.4,77.6L19.4,77.6z M9.7,41.6c1.8,0,18.8,0.1,38.1-5c-6.8-12.1-14.2-22.3-15.3-23.8
				C21,18.2,12.3,28.9,9.7,41.6L9.7,41.6z M40.3,10.1c1.1,1.5,8.6,11.7,15.4,24.1c14.7-5.5,20.9-13.8,21.6-14.9
				C70,12.8,60.5,8.9,50,8.9C46.7,8.9,43.4,9.3,40.3,10.1L40.3,10.1z M81.9,24c-0.9,1.2-7.8,10-23,16.2c1,2,1.9,4,2.7,6
				c0.3,0.7,0.6,1.4,0.9,2.1c13.7-1.7,27.3,1,28.7,1.3C91.1,40,87.6,31,81.9,24L81.9,24z"/>
		</defs>
		<use xlink:href="#XMLID_65_"  style="overflow:visible;fill-rule:evenodd;clip-rule:evenodd;fill:#333333;"/>
		<clipPath id="XMLID_2_">
			<use xlink:href="#XMLID_65_"  style="overflow:visible;"/>
		</clipPath>
	</g>
</g>
</svg>
