<?xml version="1.0" encoding="utf-8"?>
<!-- Generator: Adobe Illustrator 24.1.0, SVG Export Plug-In . SVG Version: 6.00 Build 0)  -->
<svg version="1.1" id="Capa_1" xmlns="http://www.w3.org/2000/svg" xmlns:xlink="http://www.w3.org/1999/xlink" x="0px" y="0px"
	 viewBox="0 0 49.5 55.4" style="enable-background:new 0 0 49.5 55.4;" xml:space="preserve">
<style type="text/css">
	.st0{fill:#222222;}
</style>
<path class="st0" d="M49.5,28.4v-0.6c0-3.4-2.8-6.1-6.1-6.1c-0.8,0-1.5,0.1-2.2,0.4c-0.6-2.8-3.1-4.9-6-4.9c-0.8,0-1.6,0.2-2.3,0.4
	c-0.7-2.6-3.2-4.5-6-4.5c-0.8,0-1.5,0.1-2.2,0.4V6.1c0-3.4-2.8-6.1-6.1-6.1s-6.1,2.8-6.1,6.1v18.1c-1.1-1.4-2.4-2.6-3.9-3.2
	c-1.7-0.7-3.4-0.6-5.1,0.2c-3,1.6-4.3,5.3-2.8,8.3L8.3,45c0.2,0.4,5.4,10.4,14.7,10.4h10.9c8.6,0,15.6-7,15.6-15.7L49.5,28.4
	L49.5,28.4L49.5,28.4z M33.9,51.3H23c-6.7,0-10.9-7.8-11.1-8.1L4.3,27.8c-0.5-1.1-0.1-2.3,1-2.9c0.6-0.3,1.1-0.3,1.7-0.1
	c2.3,0.9,4.5,5.4,5.3,8l0.7,2l3.5-1.2V6.1c0-1.1,0.9-2,2-2s2,0.9,2,2v23.6h0h4.1h0V19.4c0-1.1,1-2.2,2.1-2.2c1.2,0,2.2,1,2.2,2v4.1
	v7.1h4.1v-7.1c0-1.1,0.9-2,2-2c1.1,0,2,0.9,2,2v4.5v4.5h4.1v-4.5c0-1.1,0.9-2,2-2c1.1,0,2,0.9,2,2v2.9h0l0,9
	C45.4,46.1,40.2,51.3,33.9,51.3z"/>
</svg>
