<?xml version="1.0" encoding="utf-8"?>
<!-- Generator: Adobe Illustrator 24.1.0, SVG Export Plug-In . SVG Version: 6.00 Build 0)  -->
<svg version="1.1" id="Capa_1" xmlns="http://www.w3.org/2000/svg" xmlns:xlink="http://www.w3.org/1999/xlink" x="0px" y="0px"
	 viewBox="0 0 28.6 32" style="enable-background:new 0 0 28.6 32;" xml:space="preserve">
<style type="text/css">
	.st0{fill:#222222;}
</style>
<path class="st0" d="M28.2,16.4v-0.3c0-1.9-1.6-3.4-3.4-3.4c-0.4,0-0.8,0.1-1.2,0.2c-0.3-1.6-1.7-2.8-3.4-2.8
	c-0.4,0-0.9,0.1-1.3,0.2c-0.4-1.5-1.8-2.5-3.4-2.5c-0.4,0-0.8,0.1-1.2,0.2V3.9c0-1.9-1.6-3.4-3.4-3.4S7.4,2,7.4,3.9V14
	c-0.6-0.8-1.3-1.5-2.2-1.8c-1-0.4-1.9-0.3-2.9,0.1c-1.7,0.9-2.4,3-1.6,4.7l4.3,8.7c0.1,0.2,3,5.8,8.3,5.8h6.1c4.8,0,8.8-3.9,8.8-8.8
	V16.4L28.2,16.4L28.2,16.4z M19.5,29.3h-6.1c-3.8,0-6.1-4.4-6.2-4.6l-4.3-8.7c-0.3-0.6-0.1-1.3,0.6-1.6c0.3-0.2,0.6-0.2,1-0.1
	c1.3,0.5,2.5,3,3,4.5L7.7,20l2-0.7V3.9c0-0.6,0.5-1.1,1.1-1.1c0.6,0,1.1,0.5,1.1,1.1v13.3l0,0h2.3l0,0v-5.8c0-0.6,0.6-1.2,1.2-1.2
	c0.7,0,1.2,0.6,1.2,1.1v2.3v4H19v-4c0-0.6,0.5-1.1,1.1-1.1c0.6,0,1.1,0.5,1.1,1.1v2.5v2.5h2.3v-2.5c0-0.6,0.5-1.1,1.1-1.1
	c0.6,0,1.1,0.5,1.1,1.1v1.6l0,0v5.1C25.9,26.3,23,29.3,19.5,29.3z"/>
</svg>
