<?xml version="1.0" encoding="utf-8"?>
<!-- Generator: Adobe Illustrator 24.1.0, SVG Export Plug-In . SVG Version: 6.00 Build 0)  -->
<svg version="1.1" id="Capa_1" xmlns="http://www.w3.org/2000/svg" xmlns:xlink="http://www.w3.org/1999/xlink" x="0px" y="0px"
	 viewBox="0 0 99 66.6" style="enable-background:new 0 0 99 66.6;" xml:space="preserve">
<style type="text/css">
	.st0{fill:#222222;}
</style>
<g>
	<path class="st0" d="M98.4,17v32.6c0,9-7.3,16.3-16.3,16.3h0c-9,0-16.3-7.3-16.3-16.3c0,9-7.3,16.3-16.3,16.3h0
		c-9,0-16.3-7.3-16.3-16.3V33.3H0.6V17c0-9,7.3-16.3,16.3-16.3h0c9,0,16.3,7.3,16.3,16.3c0-9,7.3-16.3,16.3-16.3h0
		c9,0,16.3,7.3,16.3,16.3c0-9,7.3-16.3,16.3-16.3h0C91.1,0.7,98.4,8,98.4,17z"/>
</g>
</svg>
